<svg xmlns="http://www.w3.org/2000/svg" xmlns:xlink="http://www.w3.org/1999/xlink" width="63" height="52" viewBox="0 0 63 52">
    <defs>
        <path id="a" d="M.28.365h19.122v42.647H.279z"/>
    </defs>
    <g fill="none" fill-rule="evenodd">
        <path fill="#FFF" d="M0 34.667h3.857V0H0zM56.616 10.914l-5.67 7.707v-7.707H46.93v23.753h4.017v-9.195l1.072-1.488 6.295 10.683H63l-8.393-14.198 6.964-9.555zM42.873 22.007v13.129h-4.002V22.007c0-.803-.132-1.597-.4-2.385a7.543 7.543 0 0 0-1.134-2.141 6.083 6.083 0 0 0-1.76-1.558 4.296 4.296 0 0 0-2.223-.603 4.49 4.49 0 0 0-2.223.578 6.2 6.2 0 0 0-1.78 1.52 7.302 7.302 0 0 0-1.426 2.938l-3.128-3.14a11.07 11.07 0 0 1 1.598-2.518 10.069 10.069 0 0 1 3.05-2.454c1.182-.623 2.487-.936 3.909-.936 1.427 0 2.722.313 3.895.936a9.774 9.774 0 0 1 3 2.474c.83 1.029 1.476 2.18 1.935 3.458.46 1.274.69 2.553.69 3.831"/>
        <g transform="translate(8.357 8.988)">
            <mask id="b" fill="#fff">
                <use xlink:href="#a"/>
            </mask>
            <path fill="#FF6C00" d="M19.396 13.275l-3.533-3.543a10.66 10.66 0 0 0-.46 2.798h-.009v.555c-.02.701-.151 1.85-.415 2.57a7.295 7.295 0 0 1-1.178 2.097 6.11 6.11 0 0 1-1.779 1.513 4.446 4.446 0 0 1-2.223.583 4.296 4.296 0 0 1-2.224-.602 6.031 6.031 0 0 1-1.759-1.563 7.453 7.453 0 0 1-1.134-2.136 7.484 7.484 0 0 1-.4-2.386V.365H.279v12.796c0 1.279.23 2.553.69 3.831a11.813 11.813 0 0 0 1.935 3.459 9.782 9.782 0 0 0 3 2.474c1.173.622 2.468.936 3.895.936 1.422 0 2.727-.314 3.91-.936a10.16 10.16 0 0 0 1.685-1.113v10.72c0 .744-.141 1.504-.425 2.278a7.22 7.22 0 0 1-1.178 2.092 6.144 6.144 0 0 1-1.779 1.518 4.467 4.467 0 0 1-2.223.578 4.25 4.25 0 0 1-2.214-.601 6.076 6.076 0 0 1-1.76-1.558 7.488 7.488 0 0 1-1.24-2.488l-.021-.072a7.232 7.232 0 0 1-.092-.373H.4c.06.415.149.83.26 1.246l-.004.006c.015.056.037.113.053.17.065.229.136.457.214.685.015.043.025.086.04.13A11.821 11.821 0 0 0 2.9 39.6a9.716 9.716 0 0 0 3 2.474c.294.156.596.292.906.41a8.372 8.372 0 0 0 2.994.528c1.422 0 2.726-.314 3.909-.937a9.974 9.974 0 0 0 3.05-2.449 11.513 11.513 0 0 0 1.954-3.366 10.6 10.6 0 0 0 .69-3.724v-6.404h-.006v-10.65c0-.048.006-.097.006-.146v-.28h-.006v-1.782z" mask="url(#b)"/>
        </g>
    </g>
</svg>
