<svg xmlns="http://www.w3.org/2000/svg" width="69" height="57" viewBox="0 0 69 57">
    <g fill="#FFF" fill-rule="evenodd">
        <path d="M62.008 11.963l-6.21 8.448v-8.448h-4.4V38h4.4V27.92l1.174-1.63L63.866 38H69l-9.192-15.563 7.627-10.474zM46.956 24.123v14.391h-4.383v-14.39c0-.881-.144-1.751-.439-2.616a8.27 8.27 0 0 0-1.242-2.346 6.664 6.664 0 0 0-1.926-1.708 4.702 4.702 0 0 0-2.436-.66c-.872 0-1.685.214-2.435.633a6.792 6.792 0 0 0-1.948 1.665 8.006 8.006 0 0 0-1.563 3.222l-3.425-3.442a12.136 12.136 0 0 1 1.75-2.76 11.03 11.03 0 0 1 3.34-2.69c1.295-.683 2.724-1.026 4.281-1.026 1.563 0 2.982.343 4.266 1.025a10.707 10.707 0 0 1 3.286 2.712 12.958 12.958 0 0 1 2.12 3.791c.503 1.396.754 2.798.754 4.2M30.397 24.403l-3.87-3.883a11.693 11.693 0 0 0-.503 3.066h-.01v.61c-.022.767-.166 2.027-.456 2.816a7.999 7.999 0 0 1-1.29 2.298 6.693 6.693 0 0 1-1.948 1.66c-.749.424-1.562.639-2.435.639-.878 0-1.691-.22-2.435-.66a6.608 6.608 0 0 1-1.927-1.714 8.172 8.172 0 0 1-1.242-2.341 8.21 8.21 0 0 1-.438-2.616V10.252H9.459v14.026c0 1.402.252 2.799.755 4.2a12.952 12.952 0 0 0 2.12 3.791 10.716 10.716 0 0 0 3.286 2.712c1.284.682 2.702 1.026 4.265 1.026 1.558 0 2.987-.344 4.282-1.026.663-.35 1.279-.757 1.846-1.22v11.75c0 .817-.155 1.65-.465 2.498a7.917 7.917 0 0 1-1.29 2.293 6.731 6.731 0 0 1-1.948 1.664 4.89 4.89 0 0 1-2.435.634 4.653 4.653 0 0 1-2.425-.66 6.657 6.657 0 0 1-1.927-1.707 8.21 8.21 0 0 1-1.36-2.727l-.023-.079a7.933 7.933 0 0 1-.1-.409H9.591c.066.455.163.91.285 1.366l-.005.006c.017.062.041.125.059.187.07.25.148.501.234.75.017.048.028.095.044.142a12.96 12.96 0 0 0 2.12 3.791 10.644 10.644 0 0 0 3.286 2.712c.322.171.653.32.992.45a9.163 9.163 0 0 0 3.279.578c1.557 0 2.986-.344 4.282-1.026a10.926 10.926 0 0 0 3.34-2.685 12.622 12.622 0 0 0 2.14-3.69c.504-1.353.755-2.712.755-4.082v-7.02h-.005V26.824c0-.053.005-.107.005-.16v-.307h-.005v-1.954zM0 38h4.224V0H0z"/>
    </g>
</svg>
